<?xml version="1.0" encoding="UTF-8"?>
<!-- Generator: visioncortex VTracer 0.6.3 -->
<svg version="1.1" xmlns="http://www.w3.org/2000/svg" width="874" height="874">
<path d="M0 0 C0.91 -0.01 1.82 -0.01 2.75 -0.02 C5.73 -0.04 8.71 -0.05 11.69 -0.06 C13.22 -0.07 13.22 -0.07 14.79 -0.07 C20.21 -0.09 25.63 -0.11 31.06 -0.12 C36.63 -0.13 42.2 -0.16 47.77 -0.2 C52.08 -0.23 56.39 -0.24 60.7 -0.24 C62.76 -0.25 64.81 -0.26 66.86 -0.28 C93.48 -0.5 93.48 -0.5 102.45 8.18 C103.44 8.84 104.43 9.5 105.45 10.18 C106.74 11.97 107.96 13.81 109.14 15.68 C110.07 17.15 110.07 17.15 111.02 18.65 C112.45 21.18 112.45 21.18 112.45 23.18 C113.11 23.51 113.77 23.84 114.45 24.18 C114.45 31.11 114.45 38.04 114.45 45.18 C116.35 45.14 118.25 45.1 120.21 45.05 C126.54 44.92 132.87 44.8 139.2 44.68 C143.03 44.61 146.86 44.54 150.7 44.45 C154.4 44.37 158.11 44.3 161.82 44.24 C163.23 44.21 164.63 44.18 166.04 44.15 C177.26 43.89 189.33 43.66 199.45 49.18 C199.78 49.84 200.11 50.5 200.45 51.18 C201.04 51.46 201.64 51.75 202.25 52.05 C204.89 53.41 206.53 55.1 208.57 57.24 C211.23 60.09 211.23 60.09 214.45 62.18 C214.78 63.84 215.11 65.51 215.45 67.18 C215.94 68.17 216.44 69.16 216.95 70.18 C219.85 75.99 219.44 81.17 219.01 87.49 C218.96 88.33 218.91 89.16 218.85 90.02 C218.72 92.07 218.59 94.13 218.45 96.18 C219.11 96.51 219.77 96.84 220.45 97.18 C219.79 97.18 219.13 97.18 218.45 97.18 C218.45 113.02 218.45 128.86 218.45 145.18 C219.11 145.51 219.77 145.84 220.45 146.18 C219.79 146.18 219.13 146.18 218.45 146.18 C218.78 197.66 219.11 249.14 219.45 302.18 C226.95 294.7 226.95 294.7 233.84 286.81 C235.59 285.04 237.22 284.23 239.45 283.18 C239.4 282.6 239.36 282.02 239.31 281.42 C237.71 260.2 237.71 260.2 241.45 251.18 C242.11 251.18 242.77 251.18 243.45 251.18 C243.61 250.35 243.78 249.53 243.95 248.68 C247.44 240.53 254 236.43 261.93 233.09 C266.72 231.36 270.71 231.06 275.84 231.08 C276.9 231.08 276.9 231.08 277.97 231.08 C280.22 231.09 282.46 231.1 284.7 231.11 C286.22 231.12 287.74 231.12 289.27 231.13 C292.99 231.14 296.72 231.16 300.45 231.18 C300.68 233.2 300.9 235.21 301.13 237.23 C301.36 239.25 301.36 239.25 302.45 241.18 C301.79 241.18 301.13 241.18 300.45 241.18 C300.54 245.11 300.65 249.04 300.77 252.98 C300.82 254.97 300.87 256.97 300.92 258.96 C300.96 260.21 300.99 261.47 301.03 262.76 C301.08 264.5 301.08 264.5 301.13 266.27 C301.24 269.37 301.24 269.37 303.45 272.18 C303.12 272.51 302.79 272.84 302.45 273.18 C303.11 273.51 303.77 273.84 304.45 274.18 C304.45 274.84 304.45 275.5 304.45 276.18 C311.77 276.74 311.77 276.74 318.57 274.49 C322.17 270.05 321.64 264.54 321.76 259.03 C321.8 257.88 321.8 257.88 321.83 256.7 C321.89 254.25 321.95 251.81 322.01 249.36 C322.05 247.7 322.1 246.04 322.14 244.37 C322.25 240.31 322.35 236.24 322.45 232.18 C329.08 233.03 332.14 234.09 336.45 239.18 C343.26 248.07 341.93 259.08 340.87 269.64 C339.83 275.91 337.54 281.23 333.01 285.68 C332.39 286.29 331.78 286.89 331.14 287.52 C330.3 288.34 330.3 288.34 329.45 289.18 C328.79 289.84 328.13 290.5 327.45 291.18 C321.94 293.75 316.78 295.32 310.7 295.49 C306.5 295.73 304.55 296.43 301.57 299.43 C300.51 300.66 299.47 301.91 298.45 303.18 C296.78 304.84 295.11 306.51 293.45 308.18 C292.62 309.02 291.8 309.87 290.95 310.74 C288.45 313.18 288.45 313.18 285.82 315.24 C283.39 317.06 283.39 317.06 281.76 319.43 C281.33 320 280.89 320.58 280.45 321.18 C279.79 321.18 279.13 321.18 278.45 321.18 C278.45 321.84 278.45 322.5 278.45 323.18 C277.79 323.18 277.13 323.18 276.45 323.18 C275.79 324.5 275.13 325.82 274.45 327.18 C273.79 327.18 273.13 327.18 272.45 327.18 C272.19 327.76 271.93 328.34 271.67 328.94 C270.34 331.37 268.9 332.96 266.93 334.89 C266.24 335.58 265.54 336.26 264.83 336.97 C264.11 337.68 263.38 338.39 262.64 339.11 C261.92 339.82 261.21 340.52 260.48 341.25 C259.09 342.61 257.7 343.98 256.31 345.34 C254.01 347.61 251.73 349.89 249.45 352.18 C248.85 352.76 248.25 353.35 247.64 353.95 C244.73 356.81 241.97 359.7 239.39 362.86 C236.77 365.99 233.92 368.02 230.45 370.18 C229.89 370.73 229.33 371.29 228.76 371.86 C227.45 373.18 227.45 373.18 224.45 374.18 C223.79 375.17 223.13 376.16 222.45 377.18 C221.46 376.85 220.47 376.52 219.45 376.18 C219.65 377.31 219.86 378.45 220.07 379.61 C221.01 387.37 218.27 394.08 215.25 401.11 C214.33 403.12 214.33 403.12 214.45 405.18 C213.02 406.58 213.02 406.58 211.14 408.11 C209.33 409.59 207.59 411.03 205.97 412.7 C204.25 414.37 202.47 415.59 200.45 416.86 C199.77 417.3 199.09 417.74 198.39 418.19 C196.45 419.18 196.45 419.18 193.45 419.18 C193.12 419.84 192.79 420.5 192.45 421.18 C190.23 421.56 190.23 421.56 187.51 421.74 C183.84 421.95 183.84 421.95 180.45 423.18 C177.64 423.28 174.85 423.31 172.04 423.3 C170.72 423.31 170.72 423.31 169.37 423.31 C166.39 423.31 163.42 423.31 160.44 423.31 C158.31 423.31 156.19 423.31 154.06 423.31 C148.25 423.32 142.43 423.31 136.62 423.31 C130.48 423.31 124.34 423.31 118.21 423.31 C107.83 423.31 97.46 423.31 87.09 423.31 C76.56 423.3 66.03 423.3 55.5 423.31 C-44.44 423.35 -44.44 423.35 -78.77 422.9 C-81.27 422.87 -83.77 422.85 -86.26 422.82 C-117.86 422.52 -117.86 422.52 -128.3 412.55 C-129.04 411.77 -129.79 410.98 -130.55 410.18 C-131.54 409.52 -132.53 408.86 -133.55 408.18 C-134.56 406.51 -135.56 404.84 -136.49 403.13 C-137.56 401.08 -137.56 401.08 -139.09 398.91 C-140.75 395.81 -140.93 393.97 -140.93 390.48 C-140.94 389.34 -140.95 388.2 -140.96 387.02 C-140.95 385.77 -140.95 384.52 -140.94 383.23 C-140.94 381.89 -140.95 380.54 -140.96 379.2 C-140.97 375.5 -140.97 371.81 -140.96 368.11 C-140.95 364.12 -140.97 360.14 -140.98 356.15 C-140.99 348.34 -140.99 340.53 -140.99 332.72 C-140.99 326.38 -140.99 320.03 -140.99 313.69 C-140.99 312.78 -140.99 311.88 -140.99 310.95 C-141 309.12 -141 307.28 -141 305.45 C-141.01 288.25 -141.01 271.05 -141 253.85 C-140.99 238.11 -141 222.37 -141.02 206.62 C-141.05 190.47 -141.06 174.31 -141.05 158.15 C-141.05 149.07 -141.05 140 -141.07 130.93 C-141.08 123.2 -141.08 115.48 -141.06 107.76 C-141.06 103.81 -141.05 99.87 -141.07 95.93 C-141.08 92.32 -141.08 88.72 -141.06 85.11 C-141.05 83.18 -141.07 81.26 -141.08 79.33 C-141.07 78.19 -141.06 77.05 -141.05 75.87 C-141.05 74.88 -141.05 73.9 -141.05 72.88 C-140.41 69.42 -138.88 67.76 -136.55 65.18 C-135.72 63.84 -134.9 62.48 -134.11 61.11 C-132.02 57.69 -129.84 55.54 -126.55 53.18 C-125.91 52.48 -125.27 51.77 -124.61 51.05 C-122.06 48.73 -119.86 48.15 -116.55 47.18 C-114.94 46.42 -114.94 46.42 -113.3 45.64 C-109.59 44.03 -106.4 43.81 -102.33 43.84 C-101.65 43.84 -100.96 43.84 -100.26 43.84 C-98.02 43.84 -95.79 43.86 -93.56 43.88 C-92 43.89 -90.44 43.89 -88.88 43.9 C-84.79 43.91 -80.71 43.94 -76.62 43.97 C-72.45 44 -68.27 44.02 -64.09 44.03 C-55.91 44.06 -47.73 44.11 -39.55 44.18 C-39.48 42.67 -39.48 42.67 -39.41 41.13 C-39.34 39.78 -39.27 38.43 -39.19 37.09 C-39.13 35.77 -39.06 34.46 -38.99 33.1 C-38.03 24.52 -34.44 17.38 -28.55 11.18 C-27.89 10.19 -27.23 9.2 -26.55 8.18 C-24.5 6.79 -22.38 5.59 -20.23 4.36 C-19.68 3.97 -19.12 3.58 -18.55 3.18 C-18.55 2.52 -18.55 1.86 -18.55 1.18 C-12.33 0.4 -6.26 0.02 0 0 Z M-114.55 66.18 C-114.55 66.84 -114.55 67.5 -114.55 68.18 C-115.42 68.46 -115.42 68.46 -116.3 68.74 C-120.12 71.18 -122.07 75.14 -123.1 79.47 C-123.56 82.2 -123.68 84.74 -123.69 87.51 C-123.69 88.57 -123.7 89.64 -123.7 90.73 C-123.7 91.89 -123.7 93.06 -123.7 94.25 C-123.7 95.49 -123.71 96.73 -123.71 98.01 C-123.72 101.44 -123.72 104.88 -123.73 108.31 C-123.73 112.02 -123.74 115.72 -123.75 119.43 C-123.77 128.38 -123.78 137.33 -123.79 146.28 C-123.79 150.49 -123.8 154.71 -123.8 158.93 C-123.82 172.94 -123.83 186.96 -123.84 200.98 C-123.84 204.62 -123.85 208.25 -123.85 211.89 C-123.85 212.79 -123.85 213.7 -123.85 214.63 C-123.86 229.27 -123.88 243.91 -123.91 258.54 C-123.95 273.58 -123.97 288.62 -123.97 303.65 C-123.97 312.09 -123.98 320.53 -124.01 328.97 C-124.03 336.16 -124.04 343.35 -124.03 350.54 C-124.02 354.2 -124.02 357.87 -124.04 361.53 C-124.06 365.51 -124.05 369.49 -124.04 373.47 C-124.06 375.19 -124.06 375.19 -124.07 376.95 C-124.01 384.44 -123.15 391.87 -118.18 397.83 C-114.96 400.73 -111.61 401.91 -107.55 403.18 C-107.54 401.93 -107.53 400.69 -107.52 399.4 C-107.42 387.65 -107.32 375.89 -107.21 364.14 C-107.16 358.09 -107.1 352.05 -107.05 346.01 C-107.01 340.17 -106.95 334.34 -106.9 328.5 C-106.88 326.28 -106.86 324.06 -106.84 321.83 C-106.82 318.71 -106.79 315.59 -106.76 312.47 C-106.75 311.56 -106.75 310.65 -106.74 309.71 C-106.56 294.19 -106.56 294.19 -104.55 292.18 C-104 290.22 -103.46 288.26 -102.93 286.3 C-101.15 280.35 -98.68 275.69 -95.14 270.61 C-93.57 268.2 -92.53 265.88 -91.55 263.18 C-90.89 263.18 -90.23 263.18 -89.55 263.18 C-89.55 262.52 -89.55 261.86 -89.55 261.18 C-88.97 260.92 -88.39 260.66 -87.79 260.39 C-85.4 259.1 -83.67 257.64 -81.68 255.8 C-75.88 250.66 -70.04 247.37 -62.94 244.33 C-60.44 243.29 -60.44 243.29 -58.55 241.18 C-55.72 240.89 -52.96 240.71 -50.11 240.61 C-44.25 240.46 -44.25 240.46 -38.55 239.18 C-38.55 238.52 -38.55 237.86 -38.55 237.18 C-39.97 236.53 -41.38 235.88 -42.8 235.24 C-43.99 234.7 -43.99 234.7 -45.19 234.15 C-47.49 233.13 -47.49 233.13 -49.79 232.67 C-50.66 232.43 -50.66 232.43 -51.55 232.18 C-52.24 230.85 -52.9 229.52 -53.55 228.18 C-55.47 226.8 -55.47 226.8 -57.55 226.18 C-58.21 226.51 -58.87 226.84 -59.55 227.18 C-59.3 226.33 -59.06 225.49 -58.8 224.61 C-58.52 220.71 -59.5 219.13 -61.56 215.9 C-64.13 211.44 -63.65 206.16 -63.55 201.18 C-64.28 201.06 -65 200.93 -65.75 200.81 C-68.69 200.3 -71.62 199.75 -74.55 199.18 C-75.62 198.97 -76.7 198.76 -77.8 198.55 C-83.97 195.47 -87.91 189.39 -90.55 183.18 C-91.21 183.18 -91.87 183.18 -92.55 183.18 C-92.22 181.2 -91.89 179.22 -91.55 177.18 C-92.21 177.18 -92.87 177.18 -93.55 177.18 C-92.89 174.54 -92.23 171.9 -91.55 169.18 C-92.21 169.18 -92.87 169.18 -93.55 169.18 C-93.39 168.33 -93.22 167.49 -93.05 166.61 C-92.34 161.7 -92.02 156.96 -93.55 152.18 C-92.89 152.18 -92.23 152.18 -91.55 152.18 C-91.88 150.86 -92.21 149.54 -92.55 148.18 C-91.89 148.18 -91.23 148.18 -90.55 148.18 C-90.28 147.51 -90.02 146.85 -89.74 146.17 C-87.38 140.85 -85.28 136.91 -80.09 134.07 C-74.76 132.19 -69.15 131.7 -63.55 131.18 C-63.74 130.54 -63.92 129.9 -64.11 129.24 C-64.26 128.56 -64.4 127.88 -64.55 127.18 C-64.22 126.85 -63.89 126.52 -63.55 126.18 C-63.47 124.72 -63.41 123.26 -63.36 121.8 C-62.89 116.17 -60.72 112.21 -57.83 107.43 C-56.39 105.32 -56.39 105.32 -56.55 103.18 C-55.56 102.85 -54.57 102.52 -53.55 102.18 C-55.5 101.59 -55.5 101.59 -57.55 101.18 C-57.88 101.51 -58.21 101.84 -58.55 102.18 C-58.55 101.85 -58.55 101.52 -58.55 101.18 C-59.53 101 -59.53 101 -60.53 100.81 C-61.4 100.64 -62.28 100.47 -63.18 100.3 C-64.04 100.14 -64.89 99.98 -65.78 99.81 C-68.78 99.12 -71.64 98.19 -74.55 97.18 C-74.69 94.95 -74.78 92.72 -74.86 90.49 C-74.92 89.25 -74.98 88.01 -75.04 86.73 C-74.55 83.18 -74.55 83.18 -72.46 80.3 C-63.87 74.02 -48.89 75.93 -38.55 76.18 C-36.52 72.11 -37.37 67.43 -38.55 63.18 C-47.02 63.13 -55.49 63.1 -63.95 63.07 C-67.89 63.06 -71.82 63.05 -75.75 63.03 C-79.55 63 -83.35 62.99 -87.15 62.99 C-88.59 62.98 -90.04 62.98 -91.48 62.97 C-103.34 62.72 -103.34 62.72 -114.55 66.18 Z M114.45 63.18 C114.45 67.47 114.45 71.76 114.45 76.18 C117.02 76.23 117.02 76.23 119.64 76.29 C121.91 76.36 124.18 76.42 126.45 76.49 C128.14 76.52 128.14 76.52 129.86 76.56 C136.37 76.77 141.56 77.33 147.45 80.18 C150.26 83.53 151.36 86.81 151.45 91.18 C150.61 93.99 149.48 96.06 147.45 98.18 C144.51 99.27 142.47 99.82 139.45 100.18 C138.62 100.29 137.79 100.39 136.93 100.51 C134.77 100.76 132.61 100.99 130.45 101.18 C131.08 102.1 131.08 102.1 131.73 103.04 C132.27 103.85 132.82 104.66 133.39 105.49 C133.93 106.29 134.48 107.09 135.04 107.92 C139.28 114.71 139.84 123.37 140.45 131.18 C141.47 131.19 142.5 131.21 143.55 131.22 C144.91 131.27 146.27 131.32 147.64 131.36 C148.31 131.37 148.98 131.38 149.68 131.38 C153.54 131.55 155.28 132.03 158.27 134.54 C158.99 135.41 159.71 136.28 160.45 137.18 C161.33 138.15 162.22 139.12 163.14 140.11 C167.25 145.57 167.83 151.01 168.14 157.61 C168.19 158.79 168.19 158.79 168.25 160 C169.24 184.75 169.24 184.75 160.82 194.55 C155.32 199.58 147.54 200.23 140.45 201.18 C140.31 202.37 140.18 203.57 140.04 204.8 C138.82 214.25 137.69 221.4 130.45 228.18 C129.6 229.08 128.76 229.99 127.89 230.93 C117 239.11 103.41 239.03 90.45 239.18 C90.45 239.51 90.45 239.84 90.45 240.18 C92.26 240.21 92.26 240.21 94.1 240.25 C98.59 240.35 103.09 240.45 107.58 240.55 C109.52 240.59 111.46 240.63 113.4 240.67 C116.2 240.73 119 240.8 121.8 240.86 C123.09 240.89 123.09 240.89 124.4 240.91 C141.98 241.34 156.38 250.61 168.43 263.26 C169.55 264.56 170.66 265.86 171.75 267.18 C173.67 269.44 175.69 271.56 177.76 273.68 C178.42 274.35 179.07 275.02 179.75 275.71 C181.33 277.39 181.33 277.39 183.45 277.18 C183.55 277.78 183.65 278.37 183.76 278.99 C184.55 281.49 185.42 282.55 187.45 284.18 C188.11 284.18 188.77 284.18 189.45 284.18 C189.72 284.76 189.99 285.34 190.26 285.95 C191.45 288.18 192.75 289.94 194.39 291.86 C194.89 292.47 195.39 293.07 195.91 293.69 C197.49 295.43 197.49 295.43 200.45 296.18 C201.42 289.67 201.59 283.33 201.58 276.75 C201.58 275.56 201.58 274.38 201.59 273.15 C201.59 269.78 201.58 266.4 201.58 263.03 C201.57 260.85 201.57 258.68 201.57 256.51 C201.55 243.4 201.5 230.29 201.45 217.18 C201.44 215.87 201.44 214.57 201.43 213.22 C201.36 194.78 201.27 176.33 201.16 157.89 C201.15 156.29 201.14 154.69 201.13 153.09 C201.12 152.3 201.12 151.51 201.11 150.69 C201.08 145.08 201.05 139.46 201.03 133.85 C200.99 126.9 200.95 119.96 200.91 113.02 C200.88 109.4 200.86 105.79 200.84 102.18 C200.83 98.21 200.8 94.24 200.77 90.26 C200.76 89.09 200.76 87.92 200.76 86.71 C200.75 85.63 200.74 84.56 200.73 83.46 C200.72 82.53 200.72 81.6 200.71 80.64 C200.43 78.03 199.75 76.44 198.45 74.18 C198.2 73.54 197.95 72.9 197.7 72.24 C195.34 68.35 192.57 65.81 188.23 64.51 C180.19 63.02 172.31 62.92 164.16 62.98 C162.71 62.99 161.27 62.99 159.83 62.99 C156.07 63 152.32 63.02 148.56 63.04 C144.71 63.06 140.86 63.07 137.02 63.08 C129.49 63.1 121.97 63.14 114.45 63.18 Z M-39.55 113.18 C-39.55 113.84 -39.55 114.5 -39.55 115.18 C-40.17 115.36 -40.79 115.55 -41.43 115.74 C-44.53 117.84 -44.88 120.67 -45.55 124.18 C-45.74 126.94 -45.84 129.61 -45.83 132.37 C-45.83 133.16 -45.84 133.95 -45.84 134.76 C-45.86 137.35 -45.86 139.93 -45.85 142.52 C-45.86 144.33 -45.86 146.14 -45.87 147.94 C-45.87 151.73 -45.87 155.51 -45.87 159.3 C-45.86 164.14 -45.88 168.97 -45.9 173.81 C-45.92 177.54 -45.92 181.28 -45.91 185.01 C-45.92 186.79 -45.92 188.58 -45.93 190.36 C-45.94 192.86 -45.94 195.35 -45.92 197.85 C-45.93 198.58 -45.94 199.31 -45.95 200.06 C-45.88 206.5 -44.22 211.72 -40.55 217.11 C-33.31 222.09 -21.55 220.33 -13.05 220.34 C-11.75 220.34 -10.45 220.35 -9.1 220.35 C-5.56 220.37 -2.02 220.37 1.53 220.38 C3.75 220.38 5.97 220.38 8.19 220.39 C15.15 220.4 22.11 220.41 29.07 220.42 C37.08 220.42 45.08 220.44 53.09 220.47 C59.3 220.49 65.52 220.5 71.73 220.5 C75.43 220.5 79.13 220.51 82.83 220.52 C86.96 220.54 91.08 220.54 95.21 220.53 C96.42 220.54 97.63 220.55 98.88 220.56 C108.56 220.6 108.56 220.6 117.45 217.18 C117.8 215.85 118.14 214.52 118.45 213.18 C119.44 212.85 120.43 212.52 121.45 212.18 C123.21 206.82 123.74 201.83 123.69 196.19 C123.69 195.06 123.69 195.06 123.7 193.9 C123.7 191.44 123.69 188.97 123.68 186.51 C123.68 184.78 123.68 183.06 123.68 181.33 C123.68 177.73 123.67 174.13 123.65 170.52 C123.64 165.91 123.63 161.3 123.63 156.68 C123.63 153.13 123.63 149.57 123.62 146.01 C123.62 144.31 123.62 142.61 123.61 140.91 C123.61 138.53 123.6 136.15 123.59 133.78 C123.59 133.08 123.59 132.38 123.59 131.66 C123.57 128.04 123.3 124.7 122.45 121.18 C121.46 120.85 120.47 120.52 119.45 120.18 C119.45 119.19 119.45 118.2 119.45 117.18 C115.46 112.58 115.46 112.58 109.88 111.05 C108.79 111.05 107.7 111.05 106.57 111.04 C105.32 111.04 104.07 111.03 102.78 111.03 C101.38 111.03 99.99 111.03 98.59 111.03 C97.13 111.03 95.66 111.03 94.2 111.02 C90.22 111.01 86.24 111.01 82.26 111.01 C78.94 111.01 75.62 111.01 72.3 111 C64.46 110.99 56.63 110.99 48.8 110.99 C40.72 110.99 32.63 110.98 24.54 110.97 C17.61 110.95 10.67 110.95 3.73 110.95 C-0.41 110.95 -4.56 110.95 -8.7 110.93 C-12.6 110.93 -16.5 110.93 -20.4 110.93 C-21.83 110.93 -23.26 110.93 -24.69 110.93 C-26.64 110.92 -28.6 110.92 -30.55 110.93 C-31.64 110.93 -32.73 110.93 -33.86 110.93 C-36.78 110.98 -36.78 110.98 -39.55 113.18 Z M-36.55 238.18 C-36.22 238.84 -35.89 239.5 -35.55 240.18 C-34.56 239.52 -33.57 238.86 -32.55 238.18 C-33.87 238.18 -35.19 238.18 -36.55 238.18 Z M-6.55 238.18 C-6.88 238.84 -7.21 239.5 -7.55 240.18 C1.69 240.18 10.93 240.18 20.45 240.18 C20.45 239.85 20.45 239.52 20.45 239.18 C17.26 239.01 14.07 238.84 10.89 238.68 C9.99 238.63 9.09 238.58 8.17 238.53 C3.26 238.28 -1.63 238.12 -6.55 238.18 Z M-20.55 239.18 C-20.55 239.51 -20.55 239.84 -20.55 240.18 C-18.57 240.18 -16.59 240.18 -14.55 240.18 C-14.55 239.85 -14.55 239.52 -14.55 239.18 C-16.53 239.18 -18.51 239.18 -20.55 239.18 Z M23.45 239.18 C23.45 239.51 23.45 239.84 23.45 240.18 C29.72 240.18 35.99 240.18 42.45 240.18 C42.45 239.85 42.45 239.52 42.45 239.18 C36.18 239.18 29.91 239.18 23.45 239.18 Z M43.45 239.18 C43.45 239.51 43.45 239.84 43.45 240.18 C55.66 240.18 67.87 240.18 80.45 240.18 C80.45 239.85 80.45 239.52 80.45 239.18 C68.24 239.18 56.03 239.18 43.45 239.18 Z M83.45 239.18 C83.45 239.51 83.45 239.84 83.45 240.18 C85.43 240.18 87.41 240.18 89.45 240.18 C89.45 239.85 89.45 239.52 89.45 239.18 C87.47 239.18 85.49 239.18 83.45 239.18 Z M155.45 345.18 C155.12 364.65 154.79 384.12 154.45 404.18 C171.85 405.29 171.85 405.29 188.45 402.18 C189.81 401.68 189.81 401.68 191.2 401.18 C193.61 400.39 193.61 400.39 194.45 398.18 C195.65 397.16 195.65 397.16 196.89 396.11 C200.18 392.34 201 389.1 201.45 384.18 C201.18 380.78 201.18 380.78 200.45 378.18 C199.77 378.07 199.1 377.96 198.4 377.84 C197.06 377.61 197.06 377.61 195.7 377.36 C194.82 377.21 193.93 377.06 193.03 376.91 C190.23 376.12 188.67 375.02 186.45 373.18 C185.66 372.72 184.88 372.27 184.07 371.8 C179.73 369.11 176.06 365.79 172.45 362.18 C171.79 361.85 171.13 361.52 170.45 361.18 C170.01 360.43 169.58 359.69 169.14 358.93 C167.24 355.83 165.07 353.68 162.45 351.18 C161.56 350.27 160.67 349.36 159.76 348.43 C157.66 346.16 157.66 346.16 155.45 345.18 Z " fill="#010303" transform="translate(277.552001953125,134.822998046875)"/>
<path d="M0 0 C0.72 -0.01 1.45 -0.02 2.19 -0.03 C4.6 -0.05 7 -0.04 9.41 -0.04 C11.14 -0.05 12.87 -0.06 14.6 -0.07 C19.3 -0.1 23.99 -0.11 28.68 -0.11 C32.6 -0.11 36.52 -0.12 40.44 -0.13 C49.7 -0.16 58.95 -0.17 68.2 -0.16 C77.74 -0.15 87.28 -0.18 96.81 -0.24 C105.01 -0.28 113.21 -0.3 121.41 -0.29 C126.3 -0.29 131.19 -0.3 136.08 -0.33 C140.68 -0.37 145.28 -0.36 149.88 -0.34 C151.57 -0.33 153.25 -0.34 154.94 -0.36 C169.23 -0.52 169.23 -0.52 174.43 3.83 C179.83 9.51 180.62 15.63 180.61 23.26 C180.61 24.94 180.61 24.94 180.62 26.65 C180.61 27.86 180.61 29.08 180.61 30.33 C180.61 31.61 180.61 32.9 180.61 34.23 C180.61 37.75 180.6 41.27 180.59 44.79 C180.59 48.47 180.59 52.16 180.59 55.84 C180.58 62.81 180.57 69.78 180.56 76.75 C180.55 84.69 180.55 92.62 180.54 100.56 C180.53 116.88 180.51 133.21 180.49 149.53 C162.01 149.53 143.53 149.53 124.49 149.53 C124.49 148.87 124.49 148.21 124.49 147.53 C125.35 147.13 125.35 147.13 126.22 146.72 C132.87 143.34 137.97 139.19 141.57 132.55 C142.93 128.1 142.76 123.81 142.72 119.19 C142.72 118.19 142.72 117.19 142.72 116.16 C142.72 114.05 142.71 111.94 142.7 109.83 C142.68 106.61 142.68 103.38 142.68 100.16 C142.67 98.11 142.67 96.05 142.66 94 C142.66 92.56 142.66 92.56 142.66 91.09 C142.62 86.43 142.27 82.13 141.49 77.53 C141.82 76.54 142.15 75.55 142.49 74.53 C142.8 68.76 142.85 63 142.9 57.22 C142.92 55.31 142.95 53.4 143 51.48 C143.07 48.71 143.09 45.94 143.11 43.17 C143.16 41.9 143.16 41.9 143.2 40.61 C143.18 34.04 141.02 30.23 136.49 25.53 C115.76 9.13 76.96 12.59 52.18 15.28 C41.24 16.69 30.71 18.77 22.49 26.53 C21.97 26.94 21.45 27.35 20.91 27.77 C17.02 32.58 17.21 39.11 17.26 44.99 C17.26 45.78 17.26 46.57 17.26 47.38 C17.27 49.05 17.27 50.71 17.29 52.37 C17.3 54.89 17.31 57.41 17.31 59.93 C17.31 61.55 17.32 63.18 17.32 64.8 C17.33 65.54 17.33 66.28 17.33 67.05 C17.37 71.65 17.74 76.11 18.38 80.67 C18.49 82.53 18.49 82.53 17.49 84.53 C17.38 85.89 17.33 87.27 17.32 88.64 C17.3 89.48 17.29 90.33 17.28 91.21 C17.27 92.13 17.26 93.05 17.25 94 C17.25 94.95 17.24 95.9 17.23 96.88 C17.22 98.89 17.21 100.91 17.2 102.93 C17.18 105.99 17.14 109.05 17.09 112.11 C17.08 114.07 17.07 116.03 17.07 118 C17.05 118.9 17.03 119.81 17.01 120.74 C17.04 127.85 18.35 134.95 23.17 140.45 C26.85 143.87 30.8 145.81 35.49 147.53 C35.49 148.19 35.49 148.85 35.49 149.53 C17.34 149.53 -0.81 149.53 -19.51 149.53 C-19.62 131.8 -19.71 114.08 -19.77 96.35 C-19.79 88.12 -19.83 79.89 -19.88 71.66 C-19.93 64.49 -19.97 57.31 -19.98 50.14 C-19.98 46.34 -20 42.54 -20.04 38.75 C-20.07 35.17 -20.08 31.59 -20.07 28.01 C-20.08 26.08 -20.1 24.15 -20.13 22.22 C-20.09 16.04 -19.7 11.42 -16.26 6.19 C-11.23 1.42 -6.85 0.03 0 0 Z " fill="#36BAF4" transform="translate(236.50755310058594,391.4718780517578)"/>
<path d="M0 0 C1.39 -0 1.39 -0 2.81 -0.01 C4.29 -0.01 4.29 -0.01 5.81 -0 C7.37 -0 7.37 -0 8.97 -0.01 C11.17 -0.01 13.38 -0.01 15.58 -0 C18.9 0 22.22 -0 25.54 -0.01 C60.55 -0.02 60.55 -0.02 69.22 4.29 C71.46 5.39 71.46 5.39 75.2 5.13 C75.2 5.79 75.2 6.45 75.2 7.13 C76.19 7.44 76.19 7.44 77.2 7.75 C83.48 10.63 90.64 15.51 93.43 21.97 C93.75 22.99 94.07 24.01 94.39 25.07 C94.72 26.09 95.04 27.11 95.37 28.16 C98.24 38.39 97.32 47.3 93.2 57.13 C89.82 61.92 86.09 65.87 81.2 69.13 C82.07 69.69 82.94 70.24 83.84 70.82 C92.91 76.77 99.92 82.26 102.73 93.24 C104.57 104.48 103.87 116.32 97.92 126.28 C92.28 133.45 84.94 137.26 76.2 139.13 C75.87 139.79 75.54 140.45 75.2 141.13 C65.82 143.9 55.75 143.39 46.06 143.32 C44.63 143.32 43.19 143.32 41.75 143.32 C36.49 143.31 31.22 143.28 25.95 143.25 C8.26 143.19 8.26 143.19 -9.8 143.13 C-9.8 96.27 -9.8 49.41 -9.8 1.13 C-6.2 0.41 -3.55 0 0 0 Z M20.2 27.13 C20.2 38.02 20.2 48.91 20.2 60.13 C39.53 61.36 39.53 61.36 58.2 57.13 C58.2 56.47 58.2 55.81 58.2 55.13 C59.1 55.1 59.1 55.1 60.02 55.07 C62.55 54.24 62.55 54.24 63.95 51.07 C65.95 45.71 65.96 41.1 63.89 35.69 C62.4 32.85 62.4 32.85 59.2 32.13 C58.54 31.14 57.88 30.15 57.2 29.13 C52.37 27.34 48.09 26.89 42.96 26.93 C41.76 26.94 40.56 26.94 39.32 26.95 C37.82 26.97 36.31 26.99 34.77 27 C29.96 27.05 25.16 27.09 20.2 27.13 Z M20.2 84.13 C20.2 95.35 20.2 106.57 20.2 118.13 C25.11 118.15 30.02 118.17 35.08 118.19 C37.37 118.21 37.37 118.21 39.71 118.22 C54.42 118.98 54.42 118.98 67.2 113.13 C71.28 107.73 72.66 103.9 72.2 97.13 C70.42 92.44 67.88 89.51 64.2 86.13 C63.21 86.46 62.22 86.79 61.2 87.13 C60.21 86.47 59.22 85.81 58.2 85.13 C53.66 84.09 49.27 84.01 44.62 84.03 C43.33 84.03 42.05 84.04 40.73 84.04 C38.3 84.05 38.3 84.05 35.83 84.07 C28.09 84.1 28.09 84.1 20.2 84.13 Z " fill="#000101" transform="translate(419.7958984375,574.87060546875)"/>
<path d="M0 0 C7.55 -0.07 15.09 -0.12 22.64 -0.16 C26.15 -0.17 29.65 -0.19 33.16 -0.23 C62.45 -0.51 62.45 -0.51 76 3 C77.71 3.36 79.42 3.71 81.12 4.06 C99.71 8.56 113.26 20.09 123.25 36.06 C126.43 41.54 129 46.55 129 53 C129.66 53.33 130.32 53.66 131 54 C131.13 58.55 131.22 63.1 131.27 67.65 C131.3 69.19 131.33 70.73 131.38 72.27 C131.69 83.57 130.52 93.53 126 104 C125.01 104.5 125.01 104.5 124 105 C122.91 107.46 122.02 109.94 121.19 112.5 C119.69 115.66 117.49 117.57 115 120 C115 120.66 115 121.32 115 122 C114.13 122.4 114.13 122.4 113.25 122.81 C110.02 124.52 107.38 126.67 104.62 129.06 C102 131 102 131 98.75 132.06 C97.84 132.37 96.94 132.68 96 133 C95.67 133.99 95.34 134.98 95 136 C92.67 136.88 92.67 136.88 89.75 137.56 C86.01 138.46 82.54 139.49 79 141 C79 141.33 79 141.66 79 142 C70.01 143.05 61.08 143.13 52.05 143.1 C50.54 143.1 49.03 143.09 47.52 143.09 C43.59 143.09 39.66 143.08 35.72 143.07 C31.69 143.06 27.66 143.05 23.63 143.05 C15.76 143.04 7.88 143.02 0 143 C-0.01 142.05 -0.01 142.05 -0.01 141.08 C-0.12 125.68 -0.22 110.27 -0.34 94.86 C-0.39 87.41 -0.45 79.96 -0.5 72.51 C-0.54 66.01 -0.59 59.51 -0.64 53.02 C-0.66 49.58 -0.69 46.14 -0.71 42.7 C-0.73 38.86 -0.76 35.02 -0.79 31.18 C-0.8 30.04 -0.81 28.91 -0.81 27.74 C-0.86 22.39 -1.06 17.27 -2 12 C-1.34 12 -0.68 12 0 12 C-0.08 11.39 -0.17 10.77 -0.25 10.14 C-0.36 9.33 -0.46 8.52 -0.56 7.69 C-0.67 6.89 -0.77 6.09 -0.88 5.26 C-1 3 -1 3 0 0 Z M30 27 C30 56.7 30 86.4 30 117 C32.45 118.23 34.05 118.11 36.79 118.1 C38.2 118.09 38.2 118.09 39.64 118.09 C40.63 118.08 41.61 118.07 42.62 118.06 C43.62 118.06 44.61 118.05 45.63 118.05 C48.09 118.04 50.54 118.02 53 118 C53 117.34 53 116.68 53 116 C53.66 116.33 54.32 116.66 55 117 C61.87 118.02 67.6 116.78 73.94 114.25 C74.58 114 75.21 113.75 75.87 113.49 C79.68 111.87 82.28 110.1 85 107 C90 102 90 102 92.12 100.12 C98.71 92.66 100.53 80.28 100.23 70.66 C99.21 58.75 94.81 46.44 86 38 C83.14 35.75 80.28 33.58 77 32 C76.01 32.33 75.02 32.66 74 33 C74 32.34 74 31.68 74 31 C59.59 25.24 45.55 27 30 27 Z " fill="#000101" transform="translate(138,575)"/>
<path d="M0 0 C0 15.51 0 31.02 0 47 C5.48 43.66 5.48 43.66 7.56 41.38 C9.54 39.48 11.41 38.9 14 38 C14.56 37.74 15.12 37.48 15.69 37.21 C27.41 32.3 41.18 34.12 52.72 38.52 C60.71 42.13 66.86 46.83 72 54 C72.33 54.99 72.66 55.98 73 57 C73.66 57.66 74.32 58.32 75 59 C77.46 63.32 78.68 67.32 79.62 72.19 C80.6 77.15 80.6 77.15 82 82 C83.4 95.93 79.96 112.29 72 124 C69.5 126.31 69.5 126.31 67 128 C65.86 129.18 65.86 129.18 64.69 130.38 C61.83 133.17 58.81 135.44 55.57 137.77 C55.05 138.17 54.54 138.58 54 139 C54 139.33 54 139.66 54 140 C46.66 141.8 39.52 143.28 32 144 C30.66 144.31 29.33 144.64 28 145 C28 144.34 28 143.68 28 143 C26.5 143.05 26.5 143.05 24.96 143.09 C20.96 143 17.46 142.39 13.56 141.5 C11.71 141.08 11.71 141.08 9.82 140.66 C8.89 140.44 7.96 140.22 7 140 C7 139.01 7 138.02 7 137 C4.69 135.68 2.38 134.36 0 133 C0 132.01 0 131.02 0 130 C-0.66 130 -1.32 130 -2 130 C-1.86 131.28 -1.71 132.56 -1.56 133.88 C-1.48 134.59 -1.4 135.31 -1.32 136.05 C-1.09 138.07 -1.09 138.07 0 140 C-2.75 141.38 -4.99 141.13 -8.07 141.13 C-9.27 141.13 -10.48 141.14 -11.72 141.14 C-13.62 141.13 -13.62 141.13 -15.56 141.12 C-17.47 141.13 -17.47 141.13 -19.41 141.14 C-20.62 141.14 -21.82 141.13 -23.07 141.13 C-24.18 141.13 -25.29 141.13 -26.44 141.13 C-29 141 -29 141 -30 140 C-30.1 138.19 -30.13 136.38 -30.13 134.57 C-30.13 132.8 -30.13 132.8 -30.14 131 C-30.13 129.7 -30.13 128.39 -30.13 127.05 C-30.13 125.67 -30.13 124.3 -30.13 122.92 C-30.14 119.17 -30.14 115.41 -30.13 111.66 C-30.13 107.74 -30.13 103.83 -30.14 99.91 C-30.14 93.33 -30.14 86.75 -30.13 80.17 C-30.12 72.55 -30.13 64.93 -30.13 57.31 C-30.14 50.78 -30.14 44.25 -30.13 37.72 C-30.13 33.81 -30.13 29.91 -30.14 26 C-30.14 22.33 -30.14 18.66 -30.13 14.99 C-30.13 12.99 -30.13 11 -30.14 9 C-30.13 7.82 -30.13 6.64 -30.13 5.43 C-30.13 4.4 -30.13 3.37 -30.13 2.31 C-30 0 -30 0 -29 -1 C-25.29 -1.41 -21.55 -1.52 -17.81 -1.69 C-16.77 -1.75 -15.73 -1.81 -14.65 -1.87 C-13.64 -1.92 -12.63 -1.96 -11.58 -2.01 C-10.19 -2.08 -10.19 -2.08 -8.78 -2.15 C-6 -2 -6 -2 0 0 Z M-1 47 C0 49 0 49 0 49 Z M11 63 C11 63.66 11 64.32 11 65 C9.68 65.33 8.36 65.66 7 66 C7 66.99 7 67.98 7 69 C6.37 69.25 5.75 69.5 5.11 69.76 C1.91 71.64 1.61 73.86 0.6 77.3 C-1.25 85.61 -1.32 92.82 1 101 C1.66 101 2.32 101 3 101 C2.77 101.57 2.55 102.14 2.32 102.73 C1.76 105.07 1.76 105.07 3.21 107.14 C3.78 107.84 4.35 108.53 4.94 109.25 C5.79 110.31 5.79 110.31 6.65 111.39 C7.1 111.92 7.54 112.45 8 113 C9.49 112.5 9.49 112.5 11 112 C11 112.99 11 113.98 11 115 C18.5 118.44 24.05 120.33 32.25 118.12 C39.86 115.01 45.19 111.31 48.88 103.75 C52.43 95.08 52.86 86.96 50 78 C48.82 75.5 47.52 73.32 46 71 C45.34 71 44.68 71 44 71 C44.33 70.01 44.66 69.02 45 68 C43.92 67.04 42.84 66.08 41.75 65.12 C41.15 64.59 40.54 64.06 39.92 63.51 C31.76 57.1 19.5 57.33 11 63 Z " fill="#000202" transform="translate(314,577)"/>
<path d="M0 0 C8.91 0 17.82 0 27 0 C27.33 16.5 27.66 33 28 50 C28.66 48.68 29.32 47.36 30 46 C31.66 45.33 33.33 44.66 35 44 C35.78 43.13 36.57 42.27 37.38 41.38 C40 39 40 39 43.81 38.69 C44.86 38.79 45.92 38.89 47 39 C47.5 38.01 47.5 38.01 48 37 C55.77 34.83 64.47 35.31 72 38 C72.97 38.29 73.95 38.58 74.95 38.88 C76.02 39.21 77.09 39.54 78.19 39.88 C79.19 40.18 80.2 40.49 81.23 40.8 C84.25 42.11 85.77 43.64 88 46 C89.49 46.5 89.49 46.5 91 47 C92.63 48.75 94.18 50.58 95.69 52.44 C96.5 53.43 97.3 54.41 98.14 55.43 C100 58 100 58 100 60 C100.66 60.33 101.32 60.66 102 61 C110.06 72.99 109.96 84.98 109 99 C108.94 99.91 108.89 100.82 108.83 101.75 C108.47 106.31 108.09 109.89 105.56 113.81 C104.16 116.1 102.99 118.03 102.06 120.56 C99.05 127.47 94.05 132.09 88.05 136.46 C85.99 137.91 85.99 137.91 84.48 139.64 C82.66 141.31 81.41 141.54 79 142 C78.2 142.24 77.41 142.47 76.59 142.72 C61.91 147.04 47.96 146.71 34 140 C31.69 137.94 31.69 137.94 30 136 C29.34 135.34 28.68 134.68 28 134 C27.67 136.97 27.34 139.94 27 143 C18.09 143 9.18 143 0 143 C-0.88 139.47 -1.13 136.92 -1.13 133.33 C-1.13 132.18 -1.13 131.02 -1.14 129.83 C-1.13 128.57 -1.13 127.3 -1.13 126 C-1.13 124.65 -1.13 123.31 -1.13 121.96 C-1.14 118.31 -1.14 114.65 -1.13 111 C-1.13 107.17 -1.13 103.35 -1.14 99.53 C-1.14 93.11 -1.14 86.69 -1.13 80.28 C-1.12 72.85 -1.13 65.42 -1.13 58 C-1.14 51.63 -1.14 45.26 -1.13 38.88 C-1.13 35.08 -1.13 31.27 -1.14 27.46 C-1.14 23.88 -1.14 20.31 -1.13 16.73 C-1.13 14.79 -1.13 12.84 -1.14 10.9 C-1.13 9.75 -1.13 8.6 -1.13 7.41 C-1.13 6.41 -1.13 5.41 -1.13 4.37 C-1 2 -1 2 0 0 Z M34.31 69.32 C27.88 76.77 26.21 84.99 26.57 94.64 C27.19 99.46 28.5 103.82 31 108 C31.66 108.33 32.32 108.66 33 109 C33.12 109.6 33.25 110.2 33.38 110.81 C34.23 113.79 35.68 114.96 38 117 C45.37 120.76 52.91 122.52 60.94 120.12 C63.14 119.05 63.14 119.05 65 117 C65.66 116.88 66.32 116.75 67 116.62 C69.2 116.2 69.2 116.2 70.06 114 C70.37 113.34 70.68 112.68 71 112 C71.99 111.67 72.98 111.34 74 111 C75.21 108.81 75.21 108.81 76.12 106.19 C76.46 105.31 76.79 104.44 77.13 103.54 C78.62 99.19 79.14 95.62 79.12 91 C79.13 89.97 79.13 88.94 79.13 87.88 C79.02 85.4 78.71 83.36 78 81 C77.34 81 76.68 81 76 81 C76.5 79.51 76.5 79.51 77 78 C73.82 70.3 69.29 65.77 62 62 C51.33 58.53 42.11 61.87 34.31 69.32 Z " fill="#010302" transform="translate(663,575)"/>
<path d="M0 0 C0.5 0.99 0.5 0.99 1 2 C2.49 1.66 2.49 1.66 4 1.31 C7.92 0.73 10.43 1.76 14 3.3 C17.09 4.38 19.76 4.2 23 4 C23 4.99 23 5.98 23 7 C24.08 7.4 24.08 7.4 25.19 7.81 C37.25 12.9 44.93 22.42 49.81 34.38 C54.68 48.01 55.52 60.33 50.56 73.94 C50.07 75.33 50.07 75.33 49.58 76.76 C48.98 78.47 48.37 80.18 47.76 81.89 C47.15 83.59 46.57 85.29 46 87 C44.69 88.35 43.35 89.69 42 91 C41.34 91.99 40.68 92.98 40 94 C38.34 95.34 36.67 96.67 35 98 C34.67 98.66 34.34 99.32 34 100 C16.16 111.62 -3.81 112.45 -24.08 108.38 C-26.71 107.86 -29.35 107.43 -32 107 C-32 106.01 -32 105.02 -32 104 C-32.87 103.77 -33.73 103.55 -34.62 103.31 C-37.57 102.17 -38.96 101.37 -41.25 99.38 C-43.65 96.78 -43.65 96.78 -46 97 C-46.5 97.99 -46.5 97.99 -47 99 C-46.77 98.43 -46.53 97.85 -46.29 97.26 C-45.74 94.9 -45.74 94.9 -47.36 92.89 C-48.01 92.21 -48.65 91.52 -49.31 90.81 C-49.95 90.12 -50.58 89.42 -51.24 88.71 C-52.9 86.92 -52.9 86.92 -55 86 C-55.12 85.15 -55.25 84.31 -55.38 83.44 C-55.95 80.3 -56.45 79.13 -58.02 76.54 C-60.79 71.15 -60.44 65.92 -60.25 60 C-60.23 58.94 -60.21 57.88 -60.2 56.79 C-60.15 54.19 -60.08 51.6 -60 49 C-60.66 49 -61.32 49 -62 49 C-61.69 48.44 -61.38 47.89 -61.06 47.31 C-59.92 45.09 -59.92 45.09 -59.64 42.83 C-58.8 39.11 -57.25 35.81 -55.62 32.38 C-55.32 31.71 -55.02 31.04 -54.7 30.35 C-53.16 27.05 -51.72 24.44 -49 22 C-48.88 21.34 -48.75 20.68 -48.62 20 C-47.7 17.03 -45.64 16.51 -43 15 C-42.32 13.98 -42.32 13.98 -41.62 12.94 C-39.24 10.09 -36.53 9.8 -33 9 C-33 8.34 -33 7.68 -33 7 C-6.26 -1.13 -6.26 -1.13 0 2 C0 1.34 0 0.68 0 0 Z M-17 29 C-17 29.66 -17 30.32 -17 31 C-18.65 31.33 -20.3 31.66 -22 32 C-21.34 32.33 -20.68 32.66 -20 33 C-20 33.66 -20 34.32 -20 35 C-20.99 34.67 -21.98 34.34 -23 34 C-26.13 37.55 -27.75 40.45 -29 45 C-29.39 46.2 -29.78 47.39 -30.19 48.62 C-31.92 55.73 -30.94 63.38 -28 70 C-27.59 70.97 -27.17 71.94 -26.75 72.94 C-22.82 79.81 -18.34 82.86 -10.81 85.31 C-4.58 86.84 1.08 86.66 7 84 C7.5 83.01 7.5 83.01 8 82 C8.72 81.94 9.44 81.88 10.19 81.81 C15.47 80.29 18.11 75.41 20.94 70.94 C22.18 67.5 21.92 65.5 21 62 C21.66 61.67 22.32 61.34 23 61 C23.39 52.53 22.82 45.63 19 38 C18.34 38 17.68 38 17 38 C16.88 37.38 16.75 36.76 16.62 36.12 C16.13 33.81 16.13 33.81 14 32 C13.01 32 12.02 32 11 32 C10.5 31.01 10.5 31.01 10 30 C9.67 30 9.34 30 9 30 C8.5 29.01 8.5 29.01 8 28 C0.13 24.17 -9.47 24.89 -17 29 Z " fill="#010302" transform="translate(594,610)"/>
<path d="M0 0 C1.19 -0.01 1.19 -0.01 2.41 -0.01 C5.02 -0.02 7.62 -0.01 10.22 -0.01 C12.05 -0.01 13.87 -0.01 15.7 -0.01 C19.52 -0.02 23.33 -0.01 27.15 -0 C32.02 0.01 36.89 0 41.76 -0.01 C45.53 -0.02 49.3 -0.01 53.07 -0.01 C54.86 -0.01 56.66 -0.01 58.45 -0.01 C60.97 -0.02 63.49 -0.01 66 0 C66.73 -0 67.46 -0.01 68.21 -0.01 C74.87 0.04 81.14 0.75 86.81 4.38 C98.6 16.99 93.5 28.75 93.5 47.26 C54.23 47.26 14.96 47.26 -25.5 47.26 C-25.5 11.26 -25.5 11.26 -23.5 8.26 C-22.84 8.26 -22.18 8.26 -21.5 8.26 C-20.84 6.94 -20.18 5.62 -19.5 4.26 C-18.84 4.26 -18.18 4.26 -17.5 4.26 C-17.5 3.6 -17.5 2.94 -17.5 2.26 C-11.58 0.74 -6.1 -0.03 0 0 Z " fill="#37BCF7" transform="translate(282.498046875,150.7412109375)"/>
<path d="M0 0 C5.77 4.86 11.17 9.98 16.5 15.31 C17.95 16.77 19.42 18.21 20.88 19.65 C22.25 21.02 22.25 21.02 23.65 22.42 C24.49 23.25 25.32 24.08 26.18 24.94 C28 27 28 27 28 29 C28.56 29.23 29.11 29.45 29.69 29.69 C32.66 31.37 34.65 33.53 37 36 C37.85 36.82 38.69 37.65 39.56 38.5 C42 41 42 41 44.12 43.75 C45.87 46.25 45.87 46.25 49 47 C49 47.66 49 48.32 49 49 C50.66 49.25 52.33 49.48 54 49.69 C54.93 49.82 55.86 49.94 56.81 50.07 C64.89 49.89 69.89 45.87 75.44 40.38 C76.08 39.75 76.73 39.13 77.4 38.49 C81.81 34.24 86.13 29.91 90.36 25.48 C92 24 92 24 94 24 C95.48 25.5 95.48 25.5 97.19 27.56 C100.18 31.12 103.34 34.28 106.81 37.36 C108 39 108 39 107.81 40.85 C106.77 43.61 105.33 45.03 103.23 47.09 C102.43 47.89 101.64 48.68 100.81 49.5 C99.95 50.35 99.08 51.2 98.19 52.07 C97.3 52.95 96.42 53.83 95.51 54.73 C93.16 57.06 90.81 59.38 88.45 61.7 C85.12 64.97 81.81 68.26 78.49 71.54 C76.73 73.29 74.96 75.04 73.19 76.78 C71.99 77.96 71.99 77.96 70.77 79.16 C69.71 80.21 69.71 80.21 68.63 81.27 C66.92 82.92 66.92 82.92 66 85 C58.9 88.86 52.32 90.31 44.46 88.38 C39.92 86.84 37.19 85.36 34.16 81.63 C31.31 78.2 28.25 75.54 24.73 72.84 C1.04 54.52 1.04 54.52 -1.39 41 C-2.95 27.4 -1.68 13.54 0 0 Z " fill="#37BBF5" transform="translate(432,409)"/>
<path d="M0 0 C1.32 1.34 1.32 1.34 2.82 4.22 C2.12 8.6 -0.15 10.1 -3.51 12.83 C-20.73 24.82 -52.1 22.33 -71.9 19.16 C-80.58 17.52 -90.82 15.57 -96.68 8.34 C-96.81 4.97 -96.81 4.97 -95.68 1.34 C-91.54 -2.81 -86.54 -4.67 -80.87 -5.84 C-80.14 -6 -79.41 -6.16 -78.66 -6.33 C-56.06 -11.06 -19.88 -14.59 0 0 Z " fill="#36BAF4" transform="translate(363.68359375,425.65625)"/>
<path d="M0 0 C0.33 0 0.66 0 1 0 C1 43.56 1 87.12 1 132 C-3.95 132 -8.9 132 -14 132 C-14.05 118.6 -14.08 105.19 -14.1 91.79 C-14.11 85.56 -14.13 79.34 -14.15 73.11 C-14.17 67.1 -14.18 61.09 -14.19 55.08 C-14.19 52.79 -14.2 50.5 -14.21 48.21 C-14.23 45 -14.23 41.78 -14.23 38.57 C-14.23 37.63 -14.24 36.69 -14.25 35.72 C-14.21 22.37 -9.62 9.62 0 0 Z " fill="#37BCF7" transform="translate(201,407)"/>
<path d="M0 0 C39.6 0 79.2 0 120 0 C120 4.62 120 9.24 120 14 C80.4 14 40.8 14 0 14 C0 9.38 0 4.76 0 0 Z " fill="#37BAF4" transform="translate(256,215)"/>
<path d="M0 0 C3.3 0.41 5.79 1.36 8.68 2.93 C13.36 5.35 18.02 6.29 23.19 7.19 C24.57 7.44 24.57 7.44 25.99 7.69 C32.98 8.92 39.9 9.77 47 10 C47.81 10.04 48.61 10.08 49.45 10.12 C60.42 10.43 71.4 8.52 82.06 6.06 C83.1 5.83 83.1 5.83 84.15 5.58 C87.51 4.77 90.66 3.78 93.81 2.37 C97 1 97 1 100 1 C100.56 12.94 100.56 12.94 97 17 C90.05 24.17 77.17 26.94 67.42 27.27 C65.82 27.29 64.21 27.3 62.61 27.3 C61.74 27.31 60.88 27.31 59.98 27.31 C58.16 27.32 56.34 27.32 54.52 27.32 C51.77 27.31 49.02 27.34 46.28 27.36 C32.07 27.41 13.78 26.81 2.81 16.38 C-0.01 12.67 -0.12 9.84 -0.06 5.31 C-0.05 4.32 -0.04 3.32 -0.04 2.3 C-0.02 1.54 -0.01 0.78 0 0 Z " fill="#36B9F3" transform="translate(266,479)"/>
<path d="M0 0 C0.66 0 1.32 0 2 0 C2.64 6.11 3.18 11.48 -0.81 16.5 C-5.25 20.8 -10.18 22.33 -16 24 C-16.84 24.27 -17.67 24.53 -18.53 24.81 C-27.12 27.3 -35.39 27.49 -44.26 27.45 C-46.73 27.44 -49.2 27.47 -51.67 27.5 C-62.38 27.54 -71.74 26.12 -82 23 C-82.83 22.76 -83.66 22.53 -84.51 22.29 C-89.4 20.71 -94.27 18.48 -97 14 C-97.58 9.6 -97.41 5.41 -97 1 C-93.59 1.59 -90.72 2.5 -87.56 3.88 C-62.96 12.91 -27.19 12.45 -3.13 2.09 C-1.07 1.18 -1.07 1.18 0 0 Z " fill="#36B8F1" transform="translate(364,449)"/>
<path d="M0 0 C2.62 1 5.08 2.04 7.54 3.41 C12.02 5.47 16.52 6.53 21.31 7.62 C22.21 7.84 23.11 8.06 24.04 8.28 C45.17 13.23 75.77 14.03 95.12 2.81 C96.07 2.21 97.02 1.62 98 1 C98.66 1 99.32 1 100 1 C100.63 11.1 100.63 11.1 98.12 14.69 C96 16 96 16 94 16 C94 16.66 94 17.32 94 18 C89.13 20.72 84.52 22 79.12 23.12 C77.98 23.38 77.98 23.38 76.81 23.64 C57.13 27.88 36.85 26.8 17.44 21.69 C16.7 21.5 15.96 21.31 15.2 21.12 C9.42 19.48 3.91 16.99 0.56 11.75 C-0.24 7.82 -0.16 3.99 0 0 Z " fill="#36B8F2" transform="translate(266,508)"/>
<path d="M0 0 C0.01 0.96 0.01 0.96 0.03 1.94 C0.28 15.72 0.64 27.01 8 39 C5.57 41.5 3.19 43.85 0.44 46 C-2.11 47.93 -2.11 47.93 -4 50.62 C-6.19 53.23 -7.79 54.02 -11 55 C-15.38 50.74 -19.53 46.34 -23.52 41.7 C-24.63 40.42 -25.8 39.2 -27 38 C-27.46 33.94 -27.32 29.84 -27.31 25.75 C-27.33 24.62 -27.34 23.48 -27.36 22.32 C-27.37 14.79 -26.61 10.19 -21.75 4.25 C-15.34 -1 -7.87 -0.23 0 0 Z " fill="#36B9F3" transform="translate(561,383)"/>
<path d="M0 0 C1.03 0.97 2.03 1.97 3 3 C4.16 4.03 5.33 5.05 6.5 6.06 C10.99 9.95 15.34 14 19.68 18.06 C21.75 20.21 21.75 20.21 24 20 C27.38 27.96 27.38 27.96 26 31.75 C23.74 34.29 21.53 36.73 19 39 C18.34 39 17.68 39 17 39 C16.67 39.99 16.34 40.98 16 42 C14.43 43.36 14.43 43.36 12.44 44.75 C8.67 47.44 5.31 50.39 1.96 53.58 C-0.4 55.29 -2.12 55.72 -5 56 C-5.99 55.67 -6.98 55.34 -8 55 C-8.66 55.66 -9.32 56.32 -10 57 C-11.27 51.93 -11.98 46.44 -10 41.5 C-9.67 41 -9.34 40.51 -9 40 C-8.34 40 -7.68 40 -7 40 C-7 39.34 -7 38.68 -7 38 C-5.34 36.98 -3.68 35.98 -2 35 C-1.67 34.34 -1.34 33.68 -1 33 C0.64 31.96 2.31 30.95 4 30 C3.67 28.35 3.34 26.7 3 25 C2.01 24.67 1.02 24.34 0 24 C-0.82 22.99 -1.65 21.98 -2.5 20.94 C-3.74 19.48 -3.74 19.48 -5 18 C-5.99 18 -6.98 18 -8 18 C-8 17.01 -8 16.02 -8 15 C-8.66 14.67 -9.32 14.34 -10 14 C-12.18 10.72 -12.54 9.8 -12 6 C-9 1.22 -5.72 -1.91 0 0 Z " fill="#020605" transform="translate(352,269)"/>
<path d="M0 0 C2.57 2.1 4.51 3.82 5.8 6.92 C6.14 10.53 3.84 12.48 1.68 15.18 C-0.32 17.35 -2.41 18.6 -5 20 C-7.75 22.56 -9.92 24.87 -12 28 C-11.44 28.56 -10.89 29.11 -10.31 29.69 C-8.67 31.33 -7.04 33 -5.44 34.69 C-3.15 37.19 -3.15 37.19 0 38 C1.61 39.67 1.61 39.67 3.19 41.75 C3.72 42.43 4.25 43.1 4.79 43.8 C6.21 46.39 6.23 48.09 6 51 C5.34 51 4.68 51 4 51 C4 51.66 4 52.32 4 53 C-1.26 56.18 -1.26 56.18 -4.56 55.38 C-5.37 54.92 -6.17 54.47 -7 54 C-7.87 53.55 -8.73 53.09 -9.62 52.62 C-12 51 -12 51 -13.5 48.94 C-15.38 46.51 -17.17 46.09 -20 45 C-20.66 44.01 -21.32 43.02 -22 42 C-25.75 38.03 -29.82 34.5 -34 31 C-33.55 29.58 -33.09 28.17 -32.62 26.75 C-32.24 25.57 -32.24 25.57 -31.85 24.36 C-31.05 22.13 -30.1 20.09 -29 18 C-27.68 18 -26.36 18 -25 18 C-24.67 17.01 -24.34 16.02 -24 15 C-22.25 13.56 -22.25 13.56 -20 12 C-19.13 11.28 -18.27 10.56 -17.38 9.81 C-15 8 -15 8 -13 8 C-12.98 7.42 -12.96 6.85 -12.94 6.25 C-10.99 1.58 -4.84 -1.15 0 0 Z " fill="#020605" transform="translate(286,269)"/>
<path d="M0 0 C0.99 0.66 1.98 1.32 3 2 C2.67 6.29 2.34 10.58 2 15 C1.34 15 0.68 15 0 15 C-1.81 20.29 -3.41 25.64 -5 31 C-5.66 31 -6.32 31 -7 31 C-7.16 31.59 -7.32 32.19 -7.48 32.8 C-9.1 38.56 -11.18 43.85 -13.74 49.25 C-14.98 51.95 -16.03 54.66 -17.06 57.44 C-18.5 61.06 -19.71 63.71 -23 66 C-25.44 67 -25.44 67 -28 67 C-30.61 65.4 -32.45 64.13 -33.81 61.33 C-34.11 57.71 -32.65 54.72 -31.31 51.44 C-30.75 50.01 -30.19 48.58 -29.63 47.15 C-29.35 46.45 -29.07 45.75 -28.79 45.02 C-27.37 41.37 -26.12 37.65 -24.86 33.94 C-24 32 -24 32 -22 31 C-21.12 28.83 -21.12 28.83 -20.44 26.25 C-20.19 25.39 -19.94 24.53 -19.68 23.64 C-19.03 21.11 -18.49 18.57 -18 16 C-17.34 16 -16.68 16 -16 16 C-15.83 15.35 -15.66 14.7 -15.48 14.02 C-13.99 8.65 -12.48 4.38 -9 0 C-5.88 -1.56 -3.35 -0.65 0 0 Z " fill="#020605" transform="translate(332,265)"/>
<path d="M0 0 C7 0 7 0 9.88 1.75 C14.34 6.48 13.29 13.22 13.38 19.38 C13.41 20.4 13.45 21.43 13.49 22.49 C13.59 30.99 13.59 30.99 10.6 34.66 C6.41 38.43 6.27 38 0 38 C0 25.46 0 12.92 0 0 Z " fill="#35B5EE" transform="translate(417,282)"/>
<path d="M0 0 C0 12.21 0 24.42 0 37 C-8 37 -8 37 -9.86 35.88 C-13.7 30.2 -13.62 24.95 -13.38 18.25 C-13.36 17.21 -13.35 16.17 -13.33 15.1 C-13.19 7.56 -13.19 7.56 -12 4 C-11.34 4 -10.68 4 -10 4 C-9.67 3.01 -9.34 2.02 -9 1 C-6 0 -6 0 0 0 Z " fill="#33B1E8" transform="translate(215,282)"/>
<path d="M0 0 C7.72 -0.05 15.44 -0.08 23.16 -0.1 C26.74 -0.11 30.33 -0.13 33.91 -0.15 C37.38 -0.17 40.84 -0.18 44.3 -0.19 C46.26 -0.2 48.21 -0.21 50.17 -0.23 C51.97 -0.23 51.97 -0.23 53.81 -0.23 C54.86 -0.23 55.92 -0.24 57 -0.24 C60.26 0.02 62.95 0.85 66 2 C66 2.33 66 2.66 66 3 C43.89 3.33 21.78 3.66 -1 4 C-0.67 2.68 -0.34 1.36 0 0 Z " fill="#0E251F" transform="translate(138,575)"/>
<path d="M0 0 C0.99 0 1.98 0 3 0 C3 9.24 3 18.48 3 28 C2.01 27.34 1.02 26.68 0 26 C-0.43 21.95 -0.3 20.45 2 17 C1.34 17 0.68 17 0 17 C0 11.39 0 5.78 0 0 Z " fill="#0E2C25" transform="translate(184,287)"/>
<path d="M0 0 C8.91 0 17.82 0 27 0 C27 0.99 27 1.98 27 3 C18.09 3 9.18 3 0 3 C0 2.01 0 1.02 0 0 Z " fill="#0E2520" transform="translate(663,575)"/>
<path d="M0 0 C0.33 0.99 0.66 1.98 1 3 C-8.57 3 -18.14 3 -28 3 C-28 2.34 -28 1.68 -28 1 C-18.66 -0.21 -9.4 -0.09 0 0 Z " fill="#0F3027" transform="translate(240,210)"/>
<path d="M0 0 C2.73 2.73 2.43 4.57 2.69 8.38 C2.77 9.52 2.86 10.66 2.95 11.84 C2.99 14.52 2.83 16.47 2 19 C1.01 19 0.02 19 -1 19 C-0.84 18.34 -0.67 17.68 -0.5 17 C-0.08 14.48 0.04 12.35 0 9.81 C0 6 0 6 1 4 C0.34 3.67 -0.32 3.34 -1 3 C-0.67 2.01 -0.34 1.02 0 0 Z " fill="#0A1E19" transform="translate(616,655)"/>
<path d="M0 0 C0 3 0 3 -1.46 4.82 C-2.09 5.44 -2.72 6.05 -3.38 6.69 C-4 7.31 -4.63 7.93 -5.27 8.57 C-7 10 -7 10 -9 10 C-8.34 8.02 -7.68 6.04 -7 4 C-5.68 4 -4.36 4 -3 4 C-2.67 3.01 -2.34 2.02 -2 1 C-1.34 0.67 -0.68 0.34 0 0 Z " fill="#0D241E" transform="translate(264,283)"/>
<path d="M0 0 C0.99 0 1.98 0 3 0 C1.86 3.41 0.76 4.33 -1.94 6.62 C-2.65 7.24 -3.36 7.85 -4.09 8.48 C-6 10 -6 10 -8 11 C-8 9.68 -8 8.36 -8 7 C-6.37 5.94 -4.7 4.95 -3 4 C-2.46 3.28 -1.93 2.56 -1.38 1.81 C-0.69 0.92 -0.69 0.92 0 0 Z " fill="#0B231D" transform="translate(554,621)"/>
<path d="M0 0 C3.63 0.33 7.26 0.66 11 1 C7.58 3.28 6.32 3.22 2.31 3.12 C0.82 3.1 0.82 3.1 -0.7 3.07 C-1.46 3.05 -2.22 3.02 -3 3 C-2.01 2.67 -1.02 2.34 0 2 C0 1.34 0 0.68 0 0 Z " fill="#0B221C" transform="translate(191,691)"/>
<path d="M0 0 C0 0.33 0 0.66 0 1 C-2.97 1 -5.94 1 -9 1 C-9 0.34 -9 -0.32 -9 -1 C-5.22 -2.05 -3.35 -2.11 0 0 Z " fill="#0A221C" transform="translate(217,716)"/>
<path d="M0 0 C1.32 0.66 2.64 1.32 4 2 C0.49 4.41 -1.73 5.37 -6 5 C-3 3 -3 3 -1 3 C-0.67 2.01 -0.34 1.02 0 0 Z " fill="#0A201B" transform="translate(727,691)"/>
<path d="M0 0 C1.12 1.73 1.12 1.73 2 4 C1.32 6.14 1.32 6.14 0.12 8.25 C-0.26 8.96 -0.65 9.66 -1.05 10.39 C-1.37 10.92 -1.68 11.45 -2 12 C-3.12 8.7 -2.9 6.95 -1.56 3.75 C-1.28 3.04 -0.99 2.34 -0.69 1.61 C-0.46 1.08 -0.24 0.55 0 0 Z " fill="#0A1E18" transform="translate(769,680)"/>
<path d="M0 0 C3 3.75 3 3.75 3 6 C3.99 6.33 4.98 6.66 6 7 C5.67 7.66 5.34 8.32 5 9 C2 8 2 8 0.81 6.19 C0 4 0 4 0 0 Z " fill="#0B1F1A" transform="translate(691,677)"/>
<path d="M0 0 C2.67 2.67 5.33 5.33 8 8 C7.67 8.66 7.34 9.32 7 10 C4.36 7.36 1.72 4.72 -1 2 C-0.67 1.34 -0.34 0.68 0 0 Z " fill="#071814" transform="translate(752,621)"/>
<path d="M0 0 C3.4 1.06 6.01 2.01 9 4 C8.67 4.66 8.34 5.32 8 6 C5.36 4.68 2.72 3.36 0 2 C0 1.34 0 0.68 0 0 Z " fill="#0B211B" transform="translate(223,580)"/>
<path d="M0 0 C0.99 0.33 1.98 0.66 3 1 C3 1.66 3 2.32 3 3 C3.99 3.33 4.98 3.66 6 4 C3.92 4.55 2.16 5 0 5 C0 3.35 0 1.7 0 0 Z " fill="#0E2C25" transform="translate(218,357)"/>
<path d="M0 0 C0.66 0.33 1.32 0.66 2 1 C-0.31 3.31 -2.62 5.62 -5 8 C-5.33 7.34 -5.66 6.68 -6 6 C-4 4 -2 2 0 0 Z " fill="#091E18" transform="translate(208,212)"/>
<path d="M0 0 C0 3 0 3 -2 5.19 C-2.66 5.79 -3.32 6.38 -4 7 C-4.66 6.67 -5.32 6.34 -6 6 C-3.38 1.12 -3.38 1.12 0 0 Z " fill="#081B16" transform="translate(696,620)"/>
<path d="M0 0 C0.69 1.62 0.69 1.62 1 4 C-0.44 7.25 -0.44 7.25 -2 10 C-3.1 6.71 -2.8 5.29 -2 2 C-1.34 2 -0.68 2 0 2 C0 1.34 0 0.68 0 0 Z " fill="#091F1A" transform="translate(316,279)"/>
<path d="M0 0 C0.33 0 0.66 0 1 0 C1 2.31 1 4.62 1 7 C0.67 7 0.34 7 0 7 C0 4.69 0 2.38 0 0 Z " fill="#0F2B24" transform="translate(532,662)"/>
<path d="M0 0 C0.33 0 0.66 0 1 0 C1 1.65 1 3.3 1 5 C0.67 5 0.34 5 0 5 C0 3.35 0 1.7 0 0 Z " fill="#0C251F" transform="translate(136,667)"/>
<path d="M0 0 C0.33 0 0.66 0 1 0 C1 1.65 1 3.3 1 5 C0.67 5 0.34 5 0 5 C0 3.35 0 1.7 0 0 Z " fill="#0C251F" transform="translate(136,661)"/>
<path d="M0 0 C1 4 1 4 1 4 Z " fill="#0C241F" transform="translate(136,675)"/>
<path d="M0 0 C1 4 1 4 1 4 Z " fill="#0C251F" transform="translate(136,655)"/>
<path d="M0 0 C1 4 1 4 1 4 Z " fill="#0B251F" transform="translate(136,648)"/>
<path d="" fill="#0A241D" transform="translate(0,0)"/>
<path d="" fill="#0C221D" transform="translate(0,0)"/>
<path d="" fill="#0C2821" transform="translate(0,0)"/>
<path d="" fill="#0B261F" transform="translate(0,0)"/>
<path d="" fill="#112E25" transform="translate(0,0)"/>
<path d="" fill="#0E2823" transform="translate(0,0)"/>
<path d="M0 0 C2 1 2 1 2 1 Z " fill="#0C251F" transform="translate(721,722)"/>
<path d="M0 0 C2 1 2 1 2 1 Z " fill="#0D2920" transform="translate(574,720)"/>
<path d="M0 0 C2 1 2 1 2 1 Z " fill="#0E2721" transform="translate(736,719)"/>
<path d="" fill="#0F2721" transform="translate(0,0)"/>
<path d="" fill="#0A211C" transform="translate(0,0)"/>
<path d="M0 0 C2 1 2 1 2 1 Z " fill="#122C26" transform="translate(205,689)"/>
<path d="" fill="#102A26" transform="translate(0,0)"/>
<path d="M0 0 C2 1 2 1 2 1 Z " fill="#122A24" transform="translate(598,641)"/>
<path d="" fill="#0D231E" transform="translate(0,0)"/>
<path d="" fill="#0C2522" transform="translate(0,0)"/>
<path d="" fill="#0B241D" transform="translate(0,0)"/>
<path d="M0 0 C2 1 2 1 2 1 Z " fill="#0D2721" transform="translate(740,614)"/>
<path d="M0 0 C2 1 2 1 2 1 Z " fill="#0F2925" transform="translate(567,614)"/>
<path d="M0 0 C2 1 2 1 2 1 Z " fill="#0D2922" transform="translate(364,614)"/>
<path d="" fill="#112D27" transform="translate(0,0)"/>
<path d="" fill="#0B251F" transform="translate(0,0)"/>
<path d="" fill="#0E2A24" transform="translate(0,0)"/>
<path d="M0 0 C2 1 2 1 2 1 Z " fill="#122F26" transform="translate(593,409)"/>
<path d="M0 0 C2 1 2 1 2 1 Z " fill="#0F2F28" transform="translate(412,375)"/>
<path d="M0 0 C2 1 2 1 2 1 Z " fill="#113129" transform="translate(532,370)"/>
<path d="" fill="#13312A" transform="translate(0,0)"/>
<path d="" fill="#113028" transform="translate(0,0)"/>
<path d="M0 0 C2 1 2 1 2 1 Z " fill="#102B28" transform="translate(341,286)"/>
<path d="M0 0 C2 1 2 1 2 1 Z " fill="#112D27" transform="translate(365,280)"/>
<path d="" fill="#132F29" transform="translate(0,0)"/>
<path d="" fill="#123026" transform="translate(0,0)"/>
<path d="M0 0 C2 1 2 1 2 1 Z " fill="#102D25" transform="translate(206,235)"/>
<path d="M0 0 C2 1 2 1 2 1 Z " fill="#0C2822" transform="translate(150,184)"/>
<path d="" fill="#000402" transform="translate(0,0)"/>
<path d="" fill="#0F2621" transform="translate(0,0)"/>
<path d="" fill="#11271F" transform="translate(0,0)"/>
<path d="" fill="#0E291E" transform="translate(0,0)"/>
<path d="" fill="#102920" transform="translate(0,0)"/>
<path d="" fill="#0E2721" transform="translate(0,0)"/>
<path d="" fill="#0D2822" transform="translate(0,0)"/>
<path d="" fill="#0E2720" transform="translate(0,0)"/>
<path d="" fill="#102A22" transform="translate(0,0)"/>
<path d="" fill="#0F2721" transform="translate(0,0)"/>
<path d="" fill="#0C1F18" transform="translate(0,0)"/>
<path d="" fill="#112A22" transform="translate(0,0)"/>
<path d="" fill="#0A251F" transform="translate(0,0)"/>
<path d="" fill="#0F2820" transform="translate(0,0)"/>
<path d="" fill="#102922" transform="translate(0,0)"/>
<path d="" fill="#112B24" transform="translate(0,0)"/>
<path d="" fill="#0B231F" transform="translate(0,0)"/>
<path d="" fill="#102923" transform="translate(0,0)"/>
<path d="" fill="#112E24" transform="translate(0,0)"/>
<path d="" fill="#102C23" transform="translate(0,0)"/>
<path d="" fill="#0E2A24" transform="translate(0,0)"/>
<path d="" fill="#0E2B25" transform="translate(0,0)"/>
<path d="" fill="#0B251E" transform="translate(0,0)"/>
<path d="" fill="#0F2A23" transform="translate(0,0)"/>
<path d="" fill="#0C221D" transform="translate(0,0)"/>
<path d="" fill="#0E2D25" transform="translate(0,0)"/>
<path d="" fill="#0E2C25" transform="translate(0,0)"/>
<path d="" fill="#102D25" transform="translate(0,0)"/>
<path d="" fill="#0E2C26" transform="translate(0,0)"/>
<path d="" fill="#0F2A24" transform="translate(0,0)"/>
<path d="" fill="#0F2B22" transform="translate(0,0)"/>
<path d="" fill="#0F2B25" transform="translate(0,0)"/>
<path d="" fill="#0F2C24" transform="translate(0,0)"/>
<path d="" fill="#102C23" transform="translate(0,0)"/>
<path d="" fill="#102C26" transform="translate(0,0)"/>
<path d="" fill="#102A24" transform="translate(0,0)"/>
<path d="" fill="#102B22" transform="translate(0,0)"/>
<path d="" fill="#112D26" transform="translate(0,0)"/>
<path d="" fill="#112C27" transform="translate(0,0)"/>
<path d="" fill="#112B23" transform="translate(0,0)"/>
<path d="" fill="#112D24" transform="translate(0,0)"/>
<path d="" fill="#112C27" transform="translate(0,0)"/>
<path d="" fill="#122C24" transform="translate(0,0)"/>
<path d="" fill="#0F2B24" transform="translate(0,0)"/>
<path d="" fill="#0F2C26" transform="translate(0,0)"/>
<path d="" fill="#0F2D26" transform="translate(0,0)"/>
<path d="" fill="#0C2721" transform="translate(0,0)"/>
<path d="" fill="#0E2B22" transform="translate(0,0)"/>
<path d="" fill="#102C25" transform="translate(0,0)"/>
<path d="" fill="#112A25" transform="translate(0,0)"/>
<path d="" fill="#122D24" transform="translate(0,0)"/>
<path d="" fill="#112B26" transform="translate(0,0)"/>
<path d="" fill="#0E2822" transform="translate(0,0)"/>
<path d="" fill="#0F2B24" transform="translate(0,0)"/>
<path d="" fill="#0B2521" transform="translate(0,0)"/>
<path d="" fill="#0D2721" transform="translate(0,0)"/>
<path d="" fill="#0B251E" transform="translate(0,0)"/>
<path d="" fill="#0D261E" transform="translate(0,0)"/>
<path d="" fill="#0F2B24" transform="translate(0,0)"/>
<path d="" fill="#0F2A25" transform="translate(0,0)"/>
<path d="" fill="#09211B" transform="translate(0,0)"/>
<path d="" fill="#0F2B25" transform="translate(0,0)"/>
<path d="" fill="#0F261F" transform="translate(0,0)"/>
<path d="" fill="#122C22" transform="translate(0,0)"/>
<path d="" fill="#122E25" transform="translate(0,0)"/>
<path d="" fill="#0F2B24" transform="translate(0,0)"/>
<path d="" fill="#102A23" transform="translate(0,0)"/>
<path d="" fill="#102D24" transform="translate(0,0)"/>
<path d="" fill="#112E27" transform="translate(0,0)"/>
<path d="" fill="#0E2A23" transform="translate(0,0)"/>
<path d="" fill="#0D2521" transform="translate(0,0)"/>
<path d="" fill="#0B251E" transform="translate(0,0)"/>
<path d="" fill="#112B26" transform="translate(0,0)"/>
<path d="" fill="#123028" transform="translate(0,0)"/>
<path d="" fill="#102C26" transform="translate(0,0)"/>
<path d="" fill="#112B25" transform="translate(0,0)"/>
<path d="" fill="#0F2D25" transform="translate(0,0)"/>
<path d="" fill="#103127" transform="translate(0,0)"/>
<path d="" fill="#133129" transform="translate(0,0)"/>
<path d="" fill="#112E28" transform="translate(0,0)"/>
<path d="" fill="#112E27" transform="translate(0,0)"/>
<path d="" fill="#102F27" transform="translate(0,0)"/>
<path d="" fill="#123126" transform="translate(0,0)"/>
<path d="" fill="#14342C" transform="translate(0,0)"/>
<path d="" fill="#113028" transform="translate(0,0)"/>
<path d="" fill="#122D25" transform="translate(0,0)"/>
<path d="" fill="#122C27" transform="translate(0,0)"/>
<path d="" fill="#133028" transform="translate(0,0)"/>
<path d="" fill="#112C23" transform="translate(0,0)"/>
<path d="" fill="#113029" transform="translate(0,0)"/>
<path d="" fill="#122C29" transform="translate(0,0)"/>
<path d="" fill="#113129" transform="translate(0,0)"/>
<path d="" fill="#0F2E29" transform="translate(0,0)"/>
<path d="" fill="#132E27" transform="translate(0,0)"/>
<path d="" fill="#112E26" transform="translate(0,0)"/>
<path d="" fill="#10322A" transform="translate(0,0)"/>
<path d="" fill="#0F2F2A" transform="translate(0,0)"/>
<path d="" fill="#103027" transform="translate(0,0)"/>
<path d="" fill="#112F28" transform="translate(0,0)"/>
<path d="" fill="#0F3029" transform="translate(0,0)"/>
<path d="" fill="#102F28" transform="translate(0,0)"/>
<path d="" fill="#123028" transform="translate(0,0)"/>
<path d="" fill="#113129" transform="translate(0,0)"/>
<path d="" fill="#132F27" transform="translate(0,0)"/>
<path d="" fill="#0F2C26" transform="translate(0,0)"/>
<path d="" fill="#112D26" transform="translate(0,0)"/>
<path d="" fill="#122F28" transform="translate(0,0)"/>
<path d="" fill="#112E26" transform="translate(0,0)"/>
<path d="" fill="#102B24" transform="translate(0,0)"/>
<path d="" fill="#102F27" transform="translate(0,0)"/>
<path d="" fill="#112D25" transform="translate(0,0)"/>
<path d="" fill="#112E26" transform="translate(0,0)"/>
<path d="" fill="#123129" transform="translate(0,0)"/>
<path d="" fill="#11322A" transform="translate(0,0)"/>
<path d="" fill="#112B26" transform="translate(0,0)"/>
<path d="" fill="#0F2C24" transform="translate(0,0)"/>
<path d="" fill="#102E28" transform="translate(0,0)"/>
<path d="" fill="#102E26" transform="translate(0,0)"/>
<path d="" fill="#123029" transform="translate(0,0)"/>
<path d="" fill="#0F2A24" transform="translate(0,0)"/>
<path d="" fill="#102D28" transform="translate(0,0)"/>
<path d="" fill="#112D27" transform="translate(0,0)"/>
<path d="" fill="#102E26" transform="translate(0,0)"/>
<path d="" fill="#102E28" transform="translate(0,0)"/>
<path d="" fill="#0F2A24" transform="translate(0,0)"/>
<path d="" fill="#0E2820" transform="translate(0,0)"/>
<path d="" fill="#132E25" transform="translate(0,0)"/>
<path d="" fill="#0F281F" transform="translate(0,0)"/>
<path d="" fill="#0F2921" transform="translate(0,0)"/>
<path d="" fill="#0E2922" transform="translate(0,0)"/>
<path d="" fill="#122922" transform="translate(0,0)"/>
<path d="" fill="#102D24" transform="translate(0,0)"/>
<path d="" fill="#0C2922" transform="translate(0,0)"/>
<path d="" fill="#0C2621" transform="translate(0,0)"/>
</svg>
